<?xml version="1.0" encoding="UTF-8"?>
<svg xmlns="http://www.w3.org/2000/svg" viewBox="0 0 399 399">
  <defs>
    <style>
      .cls-1 {
        fill: none;
        stroke: #000;
        stroke-miterlimit: 10;
        stroke-width: 30px;
      }
    </style>
  </defs>
  <g id="circ_x5F_base">
    <g id="clear_x5F_bg">
      <path d="M199.5,30c45.28,0,87.84,17.63,119.85,49.65,32.01,32.01,49.65,74.58,49.65,119.85s-17.63,87.84-49.65,119.85-74.58,49.65-119.85,49.65-87.84-17.63-119.85-49.65c-32.01-32.01-49.65-74.58-49.65-119.85s17.63-87.84,49.65-119.85c32.01-32.01,74.58-49.65,119.85-49.65M199.5,0C89.32,0,0,89.32,0,199.5s89.32,199.5,199.5,199.5,199.5-89.32,199.5-199.5S309.68,0,199.5,0h0Z"/>
    </g>
  </g>
  <g id="lines">
    <line class="cls-1" x1="200" y1="312" x2="200" y2="4"/>
    <line class="cls-1" x1="33" y1="302" x2="367" y2="106"/>
    <line class="cls-1" x1="31.61" y1="106.36" x2="368" y2="301"/>
    <path class="cls-1" d="M293.43,257.85c-18.77,32.37-53.81,54.15-93.93,54.15s-74.31-21.25-93.24-52.99"/>
  </g>
</svg>